<svg xmlns="http://www.w3.org/2000/svg" width="88.518" height="92.011" viewBox="0 0 88.518 92.011"><defs><style>.a{fill:#00afbe;}</style></defs><g transform="translate(30.437 19.885)"><path class="a" d="M1532.545,1139.84h-24.139a2.012,2.012,0,0,0,0,4.023h10.058v15.55l-7.785,13.619a2.019,2.019,0,0,0,3.5,2.012l6.3-11.064,6.3,11.024a2.019,2.019,0,0,0,3.5-2.012l-7.785-13.578v-15.55h10.058a2.012,2.012,0,1,0,0-4.023Z" transform="translate(-1506.394 -1123.747)"/><path class="a" d="M1545.347,1086.074a6.035,6.035,0,1,0-6.035-6.035A6.035,6.035,0,0,0,1545.347,1086.074Zm0-8.047a2.012,2.012,0,1,1-2.011,2.012A2.011,2.011,0,0,1,1545.347,1078.027Z" transform="translate(-1531.266 -1074.004)"/></g><g transform="translate(0 0)"><path class="a" d="M1428,1084.667a46.175,46.175,0,0,1-46.123-46.122c0-25.3,20.391-45.888,45.456-45.888l.423,0a45.483,45.483,0,0,1,33.286,14.177l2,2.672V998.314a1.633,1.633,0,1,1,3.266,0v15.552l-.237.237v.236l-.115.115a1.041,1.041,0,0,0-.276.166h-16.151a1.633,1.633,0,0,1,0-3.266h11.71l-2.672-2.672a42.716,42.716,0,1,0,8.676,46.478,1.526,1.526,0,0,1,1.457-.917,1.8,1.8,0,0,1,.672.129,1.986,1.986,0,0,1,.986,2.185A45.656,45.656,0,0,1,1428,1084.667Z" transform="translate(-1381.874 -992.656)"/></g></svg>