<svg xmlns="http://www.w3.org/2000/svg" width="50" height="50" viewBox="0 0 50 50"><defs><style>.a,.d{fill:none;}.a{stroke:#00d6e8;stroke-width:2px;}.b{fill:#00d6e8;}.c{stroke:none;}</style></defs><g transform="translate(-5974 -765.944)"><g class="a" transform="translate(5974 765.944)"><circle class="c" cx="25" cy="25" r="25"/><circle class="d" cx="25" cy="25" r="24"/></g><g transform="translate(5988.422 776.476)"><path class="b" d="M49.517,18.444A4.227,4.227,0,1,0,45.29,14.22,4.227,4.227,0,0,0,49.517,18.444Zm0-6.762a2.532,2.532,0,1,1-1.793.742A2.535,2.535,0,0,1,49.517,11.683Z" transform="translate(-38.53 -9.99)"/><path class="b" d="M41.2,45.29H24.3a2.536,2.536,0,1,0,0,5.072h2.535V61.351a2.536,2.536,0,0,0,5.072,0V56.464H33.6v4.887a2.536,2.536,0,0,0,5.072,0V50.362H41.2a2.536,2.536,0,1,0,0-5.072Zm0,3.379H36.98V61.348a.845.845,0,1,1-1.69,0V54.775H30.218v6.576a.845.845,0,1,1-1.69,0V48.672H24.3a.845.845,0,0,1,0-1.69H41.2a.845.845,0,1,1,0,1.69Z" transform="translate(-21.765 -35.146)"/></g></g></svg>