<svg xmlns="http://www.w3.org/2000/svg" width="70.5" height="61.944" viewBox="0 0 70.5 61.944"><defs><style>.a{fill:#add136;stroke:#add136;stroke-width:0.5px;}</style></defs><g transform="translate(-34.75 -42.308)"><g transform="translate(35 42.558)"><ellipse class="a" cx="1.808" cy="1.446" rx="1.808" ry="1.446" transform="translate(33.268 44.799)"/><path class="a" d="M100.23,97.5H39.77a4.776,4.776,0,0,0-4.77,4.77v41.948a4.776,4.776,0,0,0,4.77,4.77H83.222v6.17a3.789,3.789,0,0,0,3.785,3.785h14.208A3.789,3.789,0,0,0,105,155.161V102.272A4.776,4.776,0,0,0,100.23,97.5ZM63.156,148.991h0Zm3.992,0h0Zm7.57,0h0ZM39.77,147.435a3.218,3.218,0,0,1-3.215-3.215V102.272c0-.457.331-.465.108-1.158.171-.86-1.209-2.057.107-2.057l64.9-.111c1.773,0,1.774,1.553,1.774,3.326v24.736a3.764,3.764,0,0,0-2.23-.729h3.274l-1.556-27.068c0-.429-2.793-1.043-3.222-1.043l-61.841.093c-.429,0-1.2.255-1.2.685l0,.119-1,40.814a.778.778,0,0,0,.778.778H83.222v6.778ZM92.4,99.724v.91l-3.04.679a.778.778,0,0,0-.59.59,8.513,8.513,0,0,1-1.123,2.71.778.778,0,0,0,0,.832l1.669,2.637-.847.847-2.636-1.669a.778.778,0,0,0-.834,0,8.442,8.442,0,0,1-2.709,1.122.778.778,0,0,0-.59.59l-.679,3.04h-1.2l-.679-3.04a.778.778,0,0,0-.59-.59,8.521,8.521,0,0,1-2.71-1.123.778.778,0,0,0-.832,0l-2.637,1.669-.847-.847,1.669-2.637a.778.778,0,0,0,0-.834,8.436,8.436,0,0,1-1.122-2.708.778.778,0,0,0-.59-.59l-3.04-.679v-.91Zm-24.9,2.292,3.179.71a9.977,9.977,0,0,0,.95,2.293l-1.745,2.757a.778.778,0,0,0,.107.966l1.727,1.727a.778.778,0,0,0,.966.107l2.758-1.746a10.054,10.054,0,0,0,2.292.95l.71,3.179a.778.778,0,0,0,.759.608h2.445a.778.778,0,0,0,.759-.608l.71-3.179a9.976,9.976,0,0,0,2.293-.95l2.757,1.745a.778.778,0,0,0,.966-.107l1.727-1.727a.778.778,0,0,0,.107-.966l-1.746-2.758a10.064,10.064,0,0,0,.95-2.292l3.179-.71a.778.778,0,0,0,.608-.759V99.724h8.979V126.28H87.007a3.789,3.789,0,0,0-3.785,3.785V139.1h-46V99.724H66.889v1.533A.778.778,0,0,0,67.5,102.016ZM84.778,133.28h18.667v18.667H84.778Zm18.667-1.556H84.778v-1.659a2.232,2.232,0,0,1,2.23-2.23h14.208a2.232,2.232,0,0,1,2.23,2.23Zm-2.23,25.667H87.007a2.232,2.232,0,0,1-2.23-2.23V153.5h18.667v1.659A2.232,2.232,0,0,1,101.215,157.391Z" transform="translate(-35 -97.502)"/><path class="a" d="M107.28,175.494l-2.756,1.75a10.073,10.073,0,0,0-2.292-.953l-.71-3.181a.778.778,0,0,0-.759-.608H98.317a.778.778,0,0,0-.759.608l-.711,3.181a10.075,10.075,0,0,0-2.292.953l-2.756-1.75a.778.778,0,0,0-.967.107l-1.727,1.727a.778.778,0,0,0-.107.966l1.746,2.758a10.053,10.053,0,0,0-.95,2.292l-3.179.71a.778.778,0,0,0-.608.759v2.445a.778.778,0,0,0,.608.759l3.179.71a9.978,9.978,0,0,0,.95,2.293L89,193.776a.778.778,0,0,0,.107.966l1.727,1.727a.778.778,0,0,0,.966.107l2.758-1.746a10.057,10.057,0,0,0,2.292.95l.71,3.179a.778.778,0,0,0,.759.608h2.445a.778.778,0,0,0,.759-.608l.71-3.179a9.981,9.981,0,0,0,2.293-.95l2.757,1.745a.778.778,0,0,0,.966-.107l1.727-1.727a.778.778,0,0,0,.107-.966l-1.746-2.758a10.062,10.062,0,0,0,.95-2.292l3.179-.71a.778.778,0,0,0,.608-.759v-2.445a.778.778,0,0,0-.608-.759l-3.179-.71a10.058,10.058,0,0,0-.95-2.292l1.746-2.758a.778.778,0,0,0-.107-.966l-1.727-1.727A.778.778,0,0,0,107.28,175.494Zm-.516,5.13a.778.778,0,0,0,0,.832,8.513,8.513,0,0,1,1.123,2.71.777.777,0,0,0,.59.59l3.04.679v1.2l-3.04.679a.778.778,0,0,0-.59.59,8.518,8.518,0,0,1-1.123,2.71.778.778,0,0,0,0,.832l1.669,2.636-.847.847-2.637-1.669a.778.778,0,0,0-.834,0,8.439,8.439,0,0,1-2.709,1.122.777.777,0,0,0-.59.59l-.679,3.04h-1.2l-.679-3.04a.778.778,0,0,0-.59-.59,8.516,8.516,0,0,1-2.71-1.123.777.777,0,0,0-.832,0l-2.637,1.669-.847-.847,1.669-2.637a.778.778,0,0,0,0-.834,8.447,8.447,0,0,1-1.122-2.709.778.778,0,0,0-.59-.59l-3.04-.679v-1.2l3.04-.679a.778.778,0,0,0,.59-.59,8.521,8.521,0,0,1,1.123-2.71.778.778,0,0,0,0-.832l-1.669-2.637.846-.846,2.636,1.673a.778.778,0,0,0,.835,0,8.535,8.535,0,0,1,2.711-1.128.778.778,0,0,0,.587-.589l.679-3.04h1.2l.679,3.04a.778.778,0,0,0,.587.589,8.532,8.532,0,0,1,2.711,1.128.778.778,0,0,0,.836,0l2.636-1.673.846.846Z" transform="translate(-78.073 -160.835)"/><path class="a" d="M397.158,360.866a6.935,6.935,0,0,0-1.728-.793l-.439-1.964a.778.778,0,0,0-.759-.608h-1.625a.778.778,0,0,0-.759.608l-.439,1.964a6.958,6.958,0,0,0-1.293.537l-1.7-1.08a.778.778,0,0,0-.967.107l-1.148,1.148a.778.778,0,0,0-.107.966l1.078,1.7a6.928,6.928,0,0,0-.536,1.293l-1.962.438a.778.778,0,0,0-.608.759v1.625a.778.778,0,0,0,.608.759l1.962.438a6.9,6.9,0,0,0,.79,1.727.778.778,0,0,0,1.312-.835,5.351,5.351,0,0,1-.711-1.717.778.778,0,0,0-.59-.59l-1.816-.406v-.379l1.816-.405a.778.778,0,0,0,.59-.59,5.4,5.4,0,0,1,.712-1.719.778.778,0,0,0,0-.832l-1-1.576.267-.267,1.576,1a.778.778,0,0,0,.835,0,5.417,5.417,0,0,1,1.72-.715.777.777,0,0,0,.587-.589l.406-1.816h.378l.406,1.816a.778.778,0,0,0,.587.589,5.414,5.414,0,0,1,1.719.715.778.778,0,1,0,.837-1.311Z" transform="translate(-329.85 -317.058)"/><path class="a" d="M155.5,238.765a3.225,3.225,0,1,0,3.222,3.228A3.232,3.232,0,0,0,155.5,238.765Zm0,4.895a1.67,1.67,0,1,1,1.667-1.667A1.672,1.672,0,0,1,155.5,243.66Z" transform="translate(-134.028 -216.791)"/><path class="a" d="M137.011,216.874a6.63,6.63,0,1,0,6.628,6.633A6.641,6.641,0,0,0,137.011,216.874Zm0,11.705a5.075,5.075,0,1,1,5.072-5.072A5.081,5.081,0,0,1,137.011,228.579Z" transform="translate(-115.541 -198.305)"/></g></g></svg>