<svg xmlns="http://www.w3.org/2000/svg" width="91.332" height="107.078" viewBox="0 0 91.332 107.078"><defs><style>.a,.b{fill:none;stroke:#f5821e;stroke-miterlimit:10;stroke-width:3px;}.a{stroke-linecap:round;}.c{fill:#f5821e;}</style></defs><g transform="translate(1.5 1.5)"><line class="a" x2="72.272" transform="translate(8.03 16.06)"/><line class="a" x2="64.242" transform="translate(12.045 0)"/><path class="b" d="M2192.659,317.919h-72.272a8.028,8.028,0,0,0-8.03,8.03V382.16a8.028,8.028,0,0,0,8.03,8.03h72.272a8.028,8.028,0,0,0,8.03-8.03V325.949A8.028,8.028,0,0,0,2192.659,317.919Z" transform="translate(-2112.358 -286.112)"/><rect class="c" width="10.87" height="29.27" transform="translate(30.669 61.982) rotate(-45)"/><path class="c" d="M2341.167,511.773l-1.74-5.825a10.014,10.014,0,0,0-.807-1.853l-6.933,6.935a10.325,10.325,0,0,0,1.854.807l5.823,1.739C2340.776,514,2341.587,513.186,2341.167,511.773Z" transform="translate(-2277.574 -426.356)"/><path class="c" d="M2216.46,396.564l7.686-7.687-2.7-2.694a2.689,2.689,0,0,0-3.789,0l-3.9,3.895a2.685,2.685,0,0,0,0,3.789Z" transform="translate(-2188.156 -336.947)"/><path class="c" d="M2315.172,393.868a2.688,2.688,0,0,0,0-3.789L2310.8,385.7a2.686,2.686,0,0,0-3.789,0l-1.221,1.22,5.261,5.258-2.368,2.369-5.257-5.258-1.7,1.7,3.714,3.714-2.366,2.37-3.716-3.716-1.211,1.213,8.163,8.163Z" transform="translate(-2252.305 -336.584)"/><path class="c" d="M2220.953,471.761l3.715,3.716-2.369,2.367-3.714-3.714-1.7,1.7,5.258,5.259-2.369,2.368-5.257-5.259-1.218,1.218a2.687,2.687,0,0,0,0,3.79l4.375,4.375a2.685,2.685,0,0,0,3.789,0l8.866-8.866-8.165-8.165Z" transform="translate(-2187.807 -401.087)"/></g></svg>