<svg xmlns="http://www.w3.org/2000/svg" width="60" height="37.5" viewBox="0 0 60 37.5"><defs><style>.a{fill:#f99a47;}</style></defs><g transform="translate(-8315 605)"><path class="a" d="M.938,54a.938.938,0,0,0,.938-.937c0-.16.01-.932.022-1.134a.93.93,0,0,1,.916-.709H6.324a.937.937,0,0,0,.928-.808A22.139,22.139,0,0,1,8.718,45.02a.938.938,0,0,0-.4-1.174L5.277,42.122a.9.9,0,0,1-.433-.554.874.874,0,0,1,.092-.674L6.343,38.5a.953.953,0,0,1,1.29-.334l3.042,1.727a.937.937,0,0,0,1.2-.233,22.909,22.909,0,0,1,4.019-3.95.938.938,0,0,0,.238-1.219L14.373,31.5a.874.874,0,0,1-.092-.674.9.9,0,0,1,.433-.554l2.435-1.382a.954.954,0,0,1,1.29.334l1.753,2.986a.937.937,0,0,0,1.156.4,23.159,23.159,0,0,1,5.5-1.444.937.937,0,0,0,.812-.929V26.781a.923.923,0,0,1,.938-.906h2.813a.923.923,0,0,1,.938.906v3.452a.937.937,0,0,0,.812.929,23.158,23.158,0,0,1,5.5,1.444.937.937,0,0,0,1.156-.4l1.753-2.986a.955.955,0,0,1,1.29-.334l2.435,1.383a.9.9,0,0,1,.433.554.873.873,0,0,1-.092.673L43.87,34.49a.938.938,0,0,0,.238,1.219,22.909,22.909,0,0,1,4.019,3.95.938.938,0,0,0,1.2.233l3.042-1.727a.953.953,0,0,1,1.29.334l1.406,2.395a.873.873,0,0,1,.092.674.9.9,0,0,1-.433.554l-3.037,1.724a.938.938,0,0,0-.4,1.174,22.139,22.139,0,0,1,1.466,5.392.937.937,0,0,0,.928.808h3.511a.926.926,0,0,1,.931.781c0,.13.006,1.009.006,1.062a.938.938,0,1,0,1.875,0c0-.011,0-1.067-.012-1.2a2.786,2.786,0,0,0-2.8-2.522h-2.71a23.99,23.99,0,0,0-1.16-4.269l2.33-1.322a2.766,2.766,0,0,0,1.318-1.7,2.735,2.735,0,0,0-.287-2.108l-1.406-2.395a2.836,2.836,0,0,0-3.832-1.015l-2.355,1.337A24.829,24.829,0,0,0,45.9,34.737l1.344-2.288a2.735,2.735,0,0,0,.287-2.108,2.766,2.766,0,0,0-1.319-1.7l-2.435-1.383a2.837,2.837,0,0,0-3.833,1.016l-1.352,2.3a25.035,25.035,0,0,0-4.373-1.15V26.781A2.8,2.8,0,0,0,31.406,24H28.594a2.8,2.8,0,0,0-2.813,2.781v2.646a25.035,25.035,0,0,0-4.373,1.15l-1.352-2.3a2.837,2.837,0,0,0-3.833-1.015l-2.435,1.382a2.767,2.767,0,0,0-1.319,1.7,2.736,2.736,0,0,0,.287,2.109L14.1,34.737a24.829,24.829,0,0,0-3.187,3.135L8.558,36.535A2.836,2.836,0,0,0,4.726,37.55L3.32,39.945a2.735,2.735,0,0,0-.287,2.109,2.765,2.765,0,0,0,1.318,1.7l2.33,1.322a23.989,23.989,0,0,0-1.16,4.269H2.813a2.8,2.8,0,0,0-2.765,2.27C0,51.859,0,53.051,0,53.063A.938.938,0,0,0,.937,54Z" transform="translate(8315 -629)"/><path class="a" d="M25.149,79.192a.937.937,0,0,0-1.093.751l-.043.242a.937.937,0,0,0,.765,1.083.948.948,0,0,0,.16.014.938.938,0,0,0,.923-.779l.039-.219A.938.938,0,0,0,25.149,79.192Z" transform="translate(8302.25 -658.313)"/><path class="a" d="M58.131,48.127a.938.938,0,0,0-.223-1.862q-.247.03-.493.066a.937.937,0,0,0,.274,1.855C57.835,48.165,57.982,48.145,58.131,48.127Z" transform="translate(8284.924 -640.825)"/><path class="a" d="M78.534,50.44a.937.937,0,0,0-.465-1.242c-.151-.068-.3-.135-.453-.2a.938.938,0,1,0-.734,1.725q.206.088.41.181a.937.937,0,0,0,1.242-.465Z" transform="translate(8274.46 -642.24)"/><path class="a" d="M67.9,48.227a.956.956,0,0,0,.146.011.938.938,0,0,0,.143-1.864q-.246-.038-.493-.07a.937.937,0,1,0-.237,1.86Q67.677,48.192,67.9,48.227Z" transform="translate(8279.6 -640.845)"/><path class="a" d="M85.134,54.4a.938.938,0,0,0,.156,1.317q.175.138.347.281a.937.937,0,1,0,1.2-1.442q-.19-.158-.385-.311A.938.938,0,0,0,85.134,54.4Z" transform="translate(8269.88 -644.961)"/><path class="a" d="M48,48.877c-.152.063-.3.129-.455.2a.937.937,0,0,0,.765,1.712q.2-.091.41-.177A.938.938,0,1,0,48,48.877Z" transform="translate(8290.034 -642.178)"/><path class="a" d="M92.331,61.389a.937.937,0,0,0-.175,1.314q.136.178.268.36a.938.938,0,0,0,1.516-1.1c-.1-.133-.195-.265-.294-.4A.938.938,0,0,0,92.331,61.389Z" transform="translate(8266.145 -648.761)"/><path class="a" d="M99.021,70.87c-.062-.153-.126-.3-.191-.455a.938.938,0,1,0-1.721.744q.089.206.173.414a.938.938,0,1,0,1.739-.7Z" transform="translate(8263.452 -653.357)"/><path class="a" d="M28.438,71.307q.086-.207.177-.412a.938.938,0,0,0-1.713-.763q-.1.227-.2.457a.938.938,0,0,0,1.732.718Z" transform="translate(8300.851 -653.212)"/><path class="a" d="M32.043,61.318q-.152.2-.3.4a.937.937,0,1,0,1.51,1.112q.133-.181.27-.358a.937.937,0,1,0-1.48-1.15Z" transform="translate(8298.233 -648.633)"/><path class="a" d="M39.2,54.051q-.2.152-.387.309A.937.937,0,1,0,40,55.811q.174-.142.351-.279a.937.937,0,0,0-1.15-1.481Z" transform="translate(8294.563 -644.86)"/><path class="a" d="M99.967,80.824a.938.938,0,0,0,.924.789.926.926,0,0,0,.15-.012.937.937,0,0,0,.777-1.074l-.041-.242a.937.937,0,1,0-1.848.319Z" transform="translate(8261.919 -658.488)"/><path class="a" d="M67.9,60.177a.938.938,0,0,0-1.309.211L62.334,66.28a3.293,3.293,0,1,0,1.519,1.1l4.256-5.892a.937.937,0,0,0-.211-1.309Zm-6.643,10.6a1.406,1.406,0,1,1,1.406-1.406A1.406,1.406,0,0,1,61.255,70.781Z" transform="translate(8284.214 -648.125)"/><path class="a" d="M59.063,92H.938a.938.938,0,1,0,0,1.875H59.063a.938.938,0,0,0,0-1.875Z" transform="translate(8315 -665.125)"/><path class="a" d="M60.375,100H36.938a.938.938,0,0,0,0,1.875H60.375a.938.938,0,0,0,0-1.875Z" transform="translate(8295.875 -669.375)"/><path class="a" d="M27.875,100h-.937a.938.938,0,1,0,0,1.875h.938a.938.938,0,1,0,0-1.875Z" transform="translate(8301.188 -669.375)"/><path class="a" d="M95.875,100h-.937a.938.938,0,0,0,0,1.875h.938a.938.938,0,0,0,0-1.875Z" transform="translate(8265.063 -669.375)"/></g></svg>