<svg xmlns="http://www.w3.org/2000/svg" width="30.13" height="30.13" viewBox="0 0 30.13 30.13"><defs><style>.a{fill:none;}.b{fill:#e4e4e4;}</style></defs><path class="a" d="M0,0H30.13V30.13H0Z"/><path class="b" d="M14.043,7.385a2.636,2.636,0,1,1-2.636,2.636,2.636,2.636,0,0,1,2.636-2.636m0,10.043c3.729,0,7.658,1.833,7.658,2.636v1.381H6.385V20.065c0-.8,3.929-2.636,7.658-2.636M14.043,5a5.022,5.022,0,1,0,5.022,5.022A5.02,5.02,0,0,0,14.043,5Zm0,10.043C10.691,15.043,4,16.726,4,20.065v3.766H24.087V20.065C24.087,16.726,17.4,15.043,14.043,15.043Z" transform="translate(1.022 1.277)"/></svg>