<svg xmlns="http://www.w3.org/2000/svg" width="42.182" height="50" viewBox="0 0 42.182 50"><defs><style>.a{fill:#ff315d;}</style></defs><g transform="translate(-8771.02 634)"><path class="a" d="M89.467,49.25a.706.706,0,0,0,.7-.6l.553-3.644a.706.706,0,0,0-1.4-.211l-.553,3.644a.706.706,0,0,0,.592.8A.725.725,0,0,0,89.467,49.25Z" transform="translate(8713.018 -660.926)"/><path class="a" d="M78.628,47.025a.705.705,0,0,0-.381.922l.947,2.278a.706.706,0,0,0,1.3-.542l-.947-2.278A.706.706,0,0,0,78.628,47.025Z" transform="translate(8719.459 -662.618)"/><path class="a" d="M97.769,54.766,99.2,53.1a.706.706,0,1,0-1.07-.921L96.7,53.845a.706.706,0,0,0,1.07.921Z" transform="translate(8708.285 -665.644)"/><path class="a" d="M51.7,28.74a.781.781,0,1,0-.568-1.456c-.854.334-1.513.662-2.1.951-.21.1-.415.206-.619.3-1.725-2.69-5.333-4.359-9.634-4.4h-.17c-4.093,0-7.665,1.54-9.411,4a3.008,3.008,0,0,0-1.923-.213c1.784-4.262,1.272-7.267.774-10.183a19.329,19.329,0,0,1-.406-4.722c1.938,1.294,8.135,1.453,10.275.405a.774.774,0,0,0,.238-.18c3.372-3.756,3.312-7.669-.184-11.962a.781.781,0,0,0-.435-.269c-4.623-1.033-9.111-1.787-13.2.311a.784.784,0,0,0-.148.1c-5.761,4.871-9.343,12.991-13.1,22.321-2.129,5.284-.668,10.784.745,16.1.267,1,.542,2.04.791,3.065a.782.782,0,0,0,.563.572c.245.063.485.137.725.211a5.574,5.574,0,0,0,4.491-.069A39.9,39.9,0,0,0,39.9,49.99a41.417,41.417,0,0,0,5.426-.362.781.781,0,1,0-.2-1.549,37.743,37.743,0,0,1-26.248-6.01.78.78,0,0,0-.8-.025,4.018,4.018,0,0,1-3.694.158l-.339-.1c-.222-.893-.459-1.785-.69-2.652-1.41-5.305-2.741-10.316-.806-15.117,3.667-9.1,7.148-17.006,12.6-21.654,3.532-1.772,7.6-1.126,11.8-.2,2.806,3.556,2.858,6.532.171,9.6-1.993.838-7.4.4-8.492-.274-.051-.753-.02-2.464-.006-2.835a.781.781,0,0,0-1.139-.734c-.227.117-.336.173-.389.459-1.509,3.778-1.03,6.589-.566,9.308.532,3.119,1.035,6.066-1.292,10.646a.781.781,0,0,0,.865,1.117l.334-.074c1.366-.305,1.761-.374,2.221-.084a6.28,6.28,0,0,0,1.674,4.657.781.781,0,0,0,1.064-1.144,4.92,4.92,0,0,1-1.17-3.651c1.3-2.305,4.561-3.776,8.4-3.776h.157c3.988.041,7.373,1.687,8.623,4.192a.78.78,0,0,0,1,.373c.472-.2.9-.406,1.344-.629C50.317,29.346,50.916,29.048,51.7,28.74Z" transform="translate(8761 -633.99)"/><ellipse class="a" cx="0.659" cy="0.989" rx="0.659" ry="0.989" transform="translate(8808.581 -587.248)"/><circle class="a" cx="0.659" cy="0.659" r="0.659" transform="translate(8778.923 -612.952)"/><path class="a" d="M25.821,62.025a.781.781,0,0,0-.953.558c-.075.286-.169.589-.266.9a7.038,7.038,0,0,0-.416,4.222c.08.521.147.989.209,1.42A17.961,17.961,0,0,0,26.2,75.473l.1.213.2.121A47.729,47.729,0,0,0,31.5,78.343a.781.781,0,0,0,.617-1.435,47.372,47.372,0,0,1-4.608-2.324,16.285,16.285,0,0,1-1.569-5.677c-.065-.455-.136-.951-.222-1.506l-.036-.142a5.852,5.852,0,0,1,.411-3.31c.1-.337.2-.663.285-.97A.781.781,0,0,0,25.821,62.025Z" transform="translate(8752.483 -671.776)"/></g></svg>