<svg xmlns="http://www.w3.org/2000/svg" width="92.011" height="88.732" viewBox="0 0 92.011 88.732"><defs><style>.a{fill:#add136;}</style></defs><path class="a" d="M2200.126,882.27l-67.825-.118v-12.76a1.182,1.182,0,0,0-1.178-1.178h-12.466a9.563,9.563,0,0,0-9.364,9.521h0V947.19h0a9.578,9.578,0,0,0,9.364,9.757h81.469a1.181,1.181,0,0,0,1.178-1.178V883.448A1.182,1.182,0,0,0,2200.126,882.27Zm-88.5-2.67v-1.61a7.217,7.217,0,0,1,7.008-7.4h11.288v66.1h-11.269a9.163,9.163,0,0,0-7.008,3.3V879.6Zm87.319,74.991h-80.292a7.217,7.217,0,0,1-7.008-7.4h0v-.746a7.235,7.235,0,0,1,7.008-7.421h12.466a1.182,1.182,0,0,0,1.178-1.178V884.508l66.647.118Z" transform="translate(-2109.293 -868.214)"/><path class="a" d="M2262.04,1005.361a2.446,2.446,0,0,0,.1.353.019.019,0,0,0,.02.02c.019.039.059.1.078.137,0,.02.02.02.02.039.039.039.059.079.1.118l.02.02c.039.039.078.059.117.1l.02.02a.493.493,0,0,0,.137.079.019.019,0,0,1,.02.02c.039.02.1.039.137.059h.02c.059.02.1.02.157.039h.039c.059,0,.1.02.157.02h48.45a.431.431,0,0,0,.157-.02h.039a.461.461,0,0,0,.157-.039h.02a.963.963,0,0,0,.137-.059.019.019,0,0,0,.019-.02c.039-.02.1-.059.137-.079l.02-.02c.04-.039.078-.059.118-.1l.02-.02a.527.527,0,0,0,.1-.118c0-.02.02-.02.02-.039a.487.487,0,0,0,.079-.137.019.019,0,0,1,.02-.02c.02-.059.039-.1.059-.157h0c.02-.039.02-.078.039-.118h0v-.039a.655.655,0,0,0,.02-.2V989.853a.655.655,0,0,0-.02-.2v-.039h0a.28.28,0,0,0-.039-.118h0c-.02-.039-.02-.078-.039-.1,0-.02-.02-.02-.02-.039-.02-.02-.02-.039-.039-.059s-.02-.039-.039-.059c0-.02-.02-.02-.02-.039-.02-.02-.039-.039-.039-.059l-.02-.02-.059-.059-.02-.02-.059-.059-.019-.02c-.02-.02-.04-.02-.059-.039-.02,0-.02-.02-.039-.02-.02-.02-.039-.02-.059-.039a.07.07,0,0,1-.039-.02c-.019,0-.039-.02-.059-.02s-.039-.02-.059-.02-.039-.02-.059-.02-.039-.02-.059-.02-.039-.02-.059-.02-.02,0-.039-.02c-.039,0-.059-.02-.1-.02h-48.685a.117.117,0,0,0-.078.02.073.073,0,0,0-.059.02c-.019,0-.039,0-.039.02-.019,0-.039.02-.078.02-.02,0-.02,0-.039.02-.02,0-.039.02-.059.039-.02,0-.02.02-.039.02-.02.02-.039.02-.059.039-.02,0-.02.02-.039.02-.02.02-.039.02-.039.039-.02.02-.039.02-.039.039l-.039.039c-.02.02-.039.02-.039.039-.019,0-.019.02-.019.039-.02.02-.039.039-.039.059s-.02.02-.02.039c-.019.02-.019.039-.039.059a.062.062,0,0,0-.019.039c-.02.02-.02.039-.04.059s-.019.039-.039.078c0,.02-.019.02-.019.039a1.648,1.648,0,0,0-.079.295c0,.059-.02.118-.02.177h0v15.352h0C2262.021,1005.243,2262.021,1005.3,2262.04,1005.361Zm48.391-1.786-19.141-6.066,19.141-6.066Zm-6.419.432h-33.2l16.588-5.261Zm-16.608-7.735-16.588-5.261h33.2Zm-3.887,1.237-19.14,6.066V991.443Z" transform="translate(-2232.044 -965.059)"/><path class="a" d="M2404.862,1106.692c0-.078-.02-.137-.02-.216v-.02c-.02-.079-.039-.137-.059-.216h0c-.04-.059-.059-.137-.1-.2v-.02a1.106,1.106,0,0,0-.137-.157h-.02c-.059-.039-.118-.1-.177-.137a.019.019,0,0,1-.02-.02c-.059-.039-.118-.059-.177-.1a.019.019,0,0,1-.02-.02c-.059-.02-.118-.039-.2-.059h-.02c-.059,0-.118-.02-.177-.02h-26.031a.545.545,0,0,0-.177.02h-.02c-.059.02-.137.039-.2.059h-.02a.8.8,0,0,0-.177.1.019.019,0,0,0-.02.02,1.1,1.1,0,0,0-.177.137h-.02a.98.98,0,0,0-.138.157v.02a.627.627,0,0,0-.1.2h0a.7.7,0,0,0-.059.216v.02a.722.722,0,0,0-.02.216V1133.9c0,.079.02.137.02.216v.02c.02.078.039.137.059.216h0c.04.059.059.137.1.2v.02a1.168,1.168,0,0,0,.138.157h.02c.059.039.1.1.157.137a.019.019,0,0,1,.02.02c.059.039.118.059.177.1h.02c.059.02.118.039.2.059h.02a.669.669,0,0,0,.2.02h25.972a.8.8,0,0,0,.216-.02h.02c.059-.02.137-.039.2-.059h.019a.8.8,0,0,0,.177-.1.019.019,0,0,0,.02-.02.527.527,0,0,0,.157-.137h.02a1,1,0,0,0,.138-.157v-.02a.606.606,0,0,0,.1-.2h0a.684.684,0,0,0,.06-.216v-.02a.759.759,0,0,0,.019-.216v-27.189Zm-15.783,13.6-10.189,10.64v-21.28Zm-8.618-12.387h20.475l-10.228,10.7Zm10.248,14.1,10.228,10.7H2380.46Zm1.629-1.708,10.188-10.64v21.28Z" transform="translate(-2324.119 -1058.929)"/><path class="a" d="M2278.6,1106.733v-.1a.074.074,0,0,0-.019-.059h0a.89.89,0,0,0-.157-.373,1.027,1.027,0,0,0-.236-.275l-.02-.02c-.02-.02-.039-.02-.039-.039-.02-.02-.04-.02-.059-.039-.02,0-.02-.02-.039-.02-.02-.02-.04-.02-.079-.039h0a.019.019,0,0,1-.02-.02c-.02-.02-.059-.02-.079-.039-.02,0-.02-.02-.039-.02s-.04-.02-.059-.02a.073.073,0,0,1-.059-.02.071.071,0,0,1-.059-.02.148.148,0,0,1-.079-.02h-14.468a.117.117,0,0,0-.078.02.072.072,0,0,0-.059.02.073.073,0,0,0-.059.02c-.02,0-.039.02-.059.02a.068.068,0,0,0-.04.02c-.02.02-.059.02-.079.039a.019.019,0,0,0-.019.02h0c-.02.02-.04.02-.079.039-.02,0-.02.02-.04.02-.02.019-.04.019-.04.039-.019.02-.039.02-.039.039l-.02.02a1.282,1.282,0,0,0-.255.314,1.7,1.7,0,0,0-.137.334v.255h0v27.15h0v.255a1.2,1.2,0,0,0,.137.334,1.289,1.289,0,0,0,.255.314l.02.02c.02.02.039.02.039.039.02.02.04.02.04.039.02,0,.02.019.04.019.019.02.039.02.079.039h.019c.04.02.059.039.1.039.02,0,.02,0,.04.02a.118.118,0,0,0,.079.02c.02,0,.039,0,.039.02.02,0,.059.019.079.019h14.488a.12.12,0,0,0,.079-.019c.02,0,.039,0,.039-.02.039,0,.059-.02.079-.02s.02,0,.039-.02c.04-.02.059-.02.1-.039h.02c.019-.02.039-.02.078-.039.02,0,.02-.019.04-.019.02-.02.039-.02.059-.039s.04-.02.04-.039l.02-.02a1.028,1.028,0,0,0,.235-.275,1.246,1.246,0,0,0,.157-.373h0a.072.072,0,0,1,.02-.059V1134h0v-27.189h0C2278.6,1106.772,2278.6,1106.753,2278.6,1106.733Zm-9.6,13.644-4.574,8.775V1111.6Zm-3.809-12.387h10.287l-5.143,9.855Zm5.144,14.939,5.143,9.855h-10.287Zm1.335-2.552,4.574-8.775v17.55Z" transform="translate(-2232.097 -1059.01)"/></svg>